<?xml version="1.0" encoding="utf-8"?>
<svg version="1.1" xmlns:xlink="http://www.w3.org/1999/xlink" width="26px" height="26px" xmlns="http://www.w3.org/2000/svg">
  <g transform="matrix(1 0 0 1 -265 -4903 )">
    <path d="M 4 10.0208333333333  L 4 21.7682291666667  L 8 21.7682291666667  L 8 10.0208333333333  L 4 10.0208333333333  Z M 7.56640625 7.845703125  C 7.97265625 7.45638020833333  8.17578125 6.97395833333333  8.17578125 6.3984375  C 8.16449652777778 5.81163194444444  7.96137152777778 5.32638888888889  7.56640625 4.94270833333333  C 7.17144097222222 4.55902777777778  6.64670138888889 4.3671875  5.9921875 4.3671875  C 5.33767361111111 4.3671875  4.80447048611111 4.55902777777778  4.392578125 4.94270833333333  C 3.98068576388889 5.32638888888889  3.77473958333333 5.81163194444444  3.77473958333333 6.3984375  C 3.77473958333333 6.97395833333333  3.97504340277778 7.45638020833333  4.37565104166667 7.845703125  C 4.77625868055556 8.23502604166667  5.29817708333333 8.4296875  5.94140625 8.4296875  L 5.95833333333333 8.4296875  C 6.62413194444444 8.4296875  7.16015625 8.23502604166667  7.56640625 7.845703125  Z M 18.078125 15.48828125  L 18.078125 21.7682291666667  L 21.98828125 21.7682291666667  L 21.98828125 15.03125  C 21.98828125 13.2934027777778  21.5763888888889 11.9787326388889  20.7526041666667 11.0872395833333  C 19.9288194444444 10.1957465277778  18.83984375 9.75  17.4856770833333 9.75  C 15.9509548611111 9.75  14.7717013888889 10.41015625  13.9479166666667 11.73046875  L 13.9817708333333 11.73046875  L 13.9817708333333 10.0208333333333  L 10.0716145833333 10.0208333333333  C 10.10546875 10.765625  10.10546875 14.6814236111111  10.0716145833333 21.7682291666667  L 13.9817708333333 21.7682291666667  L 13.9817708333333 15.2005208333333  C 13.9817708333333 14.7717013888889  14.0212673611111 14.4557291666667  14.1002604166667 14.2526041666667  C 14.26953125 13.8576388888889  14.5234375 13.5219184027778  14.8619791666667 13.2454427083333  C 15.2005208333333 12.9689670138889  15.6180555555556 12.8307291666667  16.1145833333333 12.8307291666667  C 17.4236111111111 12.8307291666667  18.078125 13.7165798611111  18.078125 15.48828125  Z M 24.5696614583333 1.43033854166667  C 25.5232204861111 2.38389756944444  26 3.53211805555555  26 4.875  L 26 21.125  C 26 22.4678819444444  25.5232204861111 23.6161024305556  24.5696614583333 24.5696614583333  C 23.6161024305556 25.5232204861111  22.4678819444444 26  21.125 26  L 4.875 26  C 3.53211805555556 26  2.38389756944444 25.5232204861111  1.43033854166667 24.5696614583333  C 0.476779513888889 23.6161024305556  0 22.4678819444444  0 21.125  L 0 4.875  C 0 3.53211805555555  0.476779513888889 2.38389756944444  1.43033854166667 1.43033854166667  C 2.38389756944444 0.476779513888887  3.53211805555556 0  4.875 0  L 21.125 0  C 22.4678819444444 0  23.6161024305556 0.476779513888887  24.5696614583333 1.43033854166667  Z " fill-rule="nonzero" fill="#ffffff" stroke="none" transform="matrix(1 0 0 1 265 4903 )" />
  </g>
</svg>