<?xml version="1.0" encoding="utf-8"?>
<svg version="1.1" xmlns:xlink="http://www.w3.org/1999/xlink" width="25px" height="25px" xmlns="http://www.w3.org/2000/svg">
  <g transform="matrix(1 0 0 1 -189 -4903 )">
    <path d="M 4.6875 0  L 20.3125 0  C 21.6037326388889 0  22.7077907986111 0.458441840277776  23.6246744791667 1.37532552083333  C 24.5415581597222 2.29220920138889  25 3.39626736111111  25 4.6875  L 25 20.3125  C 25 21.6037326388889  24.5415581597222 22.7077907986111  23.6246744791667 23.6246744791667  C 22.7077907986111 24.5415581597222  21.6037326388889 25  20.3125 25  L 17.2526041666667 25  L 17.2526041666667 15.3157552083333  L 20.4915364583333 15.3157552083333  L 20.9798177083333 11.5397135416667  L 17.2526041666667 11.5397135416667  L 17.2526041666667 9.130859375  C 17.2526041666667 8.52322048611111  17.3800998263889 8.06749131944444  17.6350911458333 7.763671875  C 17.8900824652778 7.45985243055556  18.3865017361111 7.30794270833333  19.1243489583333 7.30794270833333  L 21.1100260416667 7.29166666666667  L 21.1100260416667 3.92252604166667  C 20.4264322916667 3.82486979166667  19.4607204861111 3.77604166666667  18.212890625 3.77604166666667  C 16.7371961805556 3.77604166666667  15.5571831597222 4.21006944444444  14.6728515625 5.078125  C 13.7885199652778 5.94618055555556  13.3463541666667 7.17230902777778  13.3463541666667 8.75651041666667  L 13.3463541666667 11.5397135416667  L 10.0911458333333 11.5397135416667  L 10.0911458333333 15.3157552083333  L 13.3463541666667 15.3157552083333  L 13.3463541666667 25  L 4.6875 25  C 3.39626736111111 25  2.29220920138889 24.5415581597222  1.37532552083333 23.6246744791667  C 0.458441840277778 22.7077907986111  0 21.6037326388889  0 20.3125  L 0 4.6875  C 0 3.39626736111111  0.458441840277778 2.29220920138889  1.37532552083333 1.37532552083333  C 2.29220920138889 0.458441840277776  3.39626736111111 0  4.6875 0  Z " fill-rule="nonzero" fill="#ffffff" stroke="none" transform="matrix(1 0 0 1 189 4903 )" />
  </g>
</svg>